<?xml version="1.0" encoding="UTF-8"?>
<svg xmlns="http://www.w3.org/2000/svg" xmlns:xlink="http://www.w3.org/1999/xlink" width="40pt" height="40pt" viewBox="0 0 40 40" version="1.1">
<g id="surface1">
<path style=" stroke:none;fill-rule:nonzero;fill:rgb(0%,0%,0%);fill-opacity:1;" d="M 19.285156 1.488281 C 18.261719 1.621094 17.429688 1.960938 16.601562 2.589844 C 16.277344 2.835938 2.398438 16.714844 2.058594 17.132812 C 1.675781 17.601562 1.328125 18.214844 1.148438 18.746094 C 0.722656 20.003906 0.800781 21.578125 1.347656 22.78125 C 1.878906 23.949219 2.941406 24.972656 4.15625 25.5 C 4.722656 25.742188 5.285156 25.875 5.992188 25.921875 C 6.304688 25.941406 6.335938 25.945312 6.351562 26.011719 C 6.359375 26.050781 6.371094 27.867188 6.375 30.050781 L 6.382812 34.015625 L 6.460938 34.382812 C 6.738281 35.6875 7.335938 36.660156 8.351562 37.441406 C 9.128906 38.046875 9.96875 38.398438 10.886719 38.5 C 11.125 38.527344 13.71875 38.535156 20.199219 38.527344 L 29.183594 38.511719 L 29.511719 38.441406 C 30.394531 38.246094 31.101562 37.902344 31.773438 37.34375 C 32.515625 36.722656 33.113281 35.832031 33.398438 34.917969 C 33.621094 34.191406 33.609375 34.425781 33.625 30 C 33.628906 27.75 33.648438 25.96875 33.667969 25.953125 C 33.679688 25.941406 33.863281 25.914062 34.074219 25.898438 C 35.484375 25.800781 36.5625 25.308594 37.539062 24.308594 C 38.132812 23.707031 38.578125 22.980469 38.828125 22.210938 C 39.035156 21.589844 39.082031 21.253906 39.082031 20.515625 C 39.082031 19.785156 39.035156 19.441406 38.828125 18.824219 C 38.621094 18.171875 38.285156 17.570312 37.84375 17.035156 C 37.738281 16.917969 34.496094 13.660156 30.636719 9.800781 C 25.402344 4.570312 23.535156 2.722656 23.300781 2.546875 C 22.542969 1.976562 21.777344 1.65625 20.839844 1.515625 C 20.542969 1.46875 19.558594 1.453125 19.285156 1.488281 Z M 20.578125 26.082031 C 21.644531 26.269531 22.589844 26.992188 22.957031 27.90625 C 23.125 28.328125 23.136719 28.492188 23.125 30.691406 C 23.113281 32.6875 23.113281 32.71875 23.035156 32.964844 C 22.914062 33.375 22.71875 33.710938 22.421875 34.019531 C 21.972656 34.496094 21.429688 34.808594 20.777344 34.972656 C 20.359375 35.078125 19.640625 35.078125 19.222656 34.972656 C 18.5625 34.808594 18.027344 34.496094 17.570312 34.011719 C 17.351562 33.78125 17.265625 33.664062 17.132812 33.390625 C 16.851562 32.796875 16.851562 32.808594 16.851562 30.515625 C 16.851562 28.558594 16.851562 28.511719 16.925781 28.25 C 17.027344 27.886719 17.261719 27.425781 17.476562 27.164062 C 17.921875 26.625 18.652344 26.226562 19.433594 26.101562 C 19.570312 26.078125 19.707031 26.058594 19.734375 26.050781 C 19.878906 26.023438 20.328125 26.039062 20.578125 26.082031 Z M 20.578125 26.082031 "/>
</g>
</svg>
